<svg width="140" height="50" viewBox="0 0 140 50" fill="none" xmlns="http://www.w3.org/2000/svg">
<path d="M61.0398 21.6857H56.8323V35.8543H51.9713V21.6857H49.2938V19.3429L51.9713 18.036V16.7291C51.9713 14.6997 52.4707 13.2175 53.4694 12.2825C54.4682 11.3475 56.0673 10.88 58.2667 10.88C59.9454 10.88 61.4383 11.1297 62.7451 11.6291L61.502 15.1991C60.5245 14.891 59.6214 14.7369 58.7926 14.7369C58.102 14.7369 57.6026 14.9441 57.2945 15.3585C56.9863 15.7622 56.8323 16.2829 56.8323 16.9204V18.036H61.0398V21.6857Z" fill="#2F2E41"/>
<path d="M75.1074 35.8543L74.454 33.5752H74.199C73.6783 34.4039 72.9399 35.0468 71.9836 35.5036C71.0274 35.9499 69.9383 36.173 68.7164 36.173C66.6233 36.173 65.0455 35.6152 63.983 34.4996C62.9205 33.3733 62.3892 31.7583 62.3892 29.6545V18.036H67.2502V28.4433C67.2502 29.7289 67.4786 30.6958 67.9355 31.3439C68.3924 31.9814 69.1202 32.3002 70.1189 32.3002C71.479 32.3002 72.4618 31.8486 73.0674 30.9455C73.673 30.0317 73.9758 28.523 73.9758 26.4192V18.036H78.8368V35.8543H75.1074Z" fill="#2F2E41"/>
<path d="M95.0082 30.563C95.0082 32.3905 94.3707 33.7824 93.0957 34.7386C91.8313 35.6949 89.9347 36.173 87.4059 36.173C86.1097 36.173 85.0047 36.0827 84.0909 35.9021C83.1772 35.7321 82.3218 35.4771 81.525 35.1371V31.1208C82.4281 31.5458 83.4428 31.9017 84.569 32.1886C85.7059 32.4755 86.7047 32.6189 87.5653 32.6189C89.3291 32.6189 90.211 32.1089 90.211 31.0889C90.211 30.7064 90.0941 30.3983 89.8603 30.1645C89.6266 29.9202 89.2228 29.6492 88.6491 29.3517C88.0753 29.0436 87.3103 28.6877 86.3541 28.2839C84.9834 27.7101 83.974 27.1789 83.3259 26.6901C82.6884 26.2014 82.2209 25.6436 81.9234 25.0167C81.6365 24.3792 81.4931 23.5982 81.4931 22.6739C81.4931 21.0907 82.104 19.8688 83.3259 19.0082C84.5584 18.1369 86.3009 17.7013 88.5535 17.7013C90.6997 17.7013 92.7875 18.1688 94.8169 19.1038L93.3507 22.6101C92.4582 22.2276 91.6241 21.9142 90.8485 21.6698C90.0728 21.4254 89.2813 21.3032 88.4738 21.3032C87.0394 21.3032 86.3222 21.691 86.3222 22.4667C86.3222 22.9023 86.5506 23.2795 87.0075 23.5982C87.475 23.917 88.4897 24.3898 90.0516 25.0167C91.4435 25.5798 92.4635 26.1058 93.1116 26.5945C93.7597 27.0833 94.2379 27.6464 94.546 28.2839C94.8541 28.9214 95.0082 29.6811 95.0082 30.563Z" fill="#2F2E41"/>
<path d="M104.82 21.1598C103.79 21.1598 102.982 21.4892 102.398 22.1479C101.814 22.796 101.479 23.7204 101.394 24.9211H108.215C108.194 23.7204 107.88 22.796 107.275 22.1479C106.669 21.4892 105.851 21.1598 104.82 21.1598ZM105.506 36.173C102.637 36.173 100.395 35.3814 98.7801 33.7983C97.1651 32.2152 96.3576 29.9733 96.3576 27.0726C96.3576 24.087 97.1013 21.7813 98.5888 20.1557C100.087 18.5195 102.154 17.7013 104.789 17.7013C107.307 17.7013 109.267 18.4185 110.67 19.8529C112.072 21.2873 112.773 23.2689 112.773 25.7976V28.1564H101.282C101.335 29.5377 101.744 30.6161 102.509 31.3917C103.274 32.1674 104.348 32.5552 105.729 32.5552C106.802 32.5552 107.817 32.4436 108.773 32.2205C109.729 31.9974 110.728 31.6414 111.769 31.1527V34.9139C110.919 35.3389 110.011 35.6524 109.044 35.8543C108.077 36.0668 106.898 36.173 105.506 36.173Z" fill="#2F2E41"/>
<path d="M120.227 35.8543H115.366V11.0553H120.227V35.8543Z" fill="#2F2E41"/>
<path d="M121.433 18.036H126.756L130.119 28.0608C130.406 28.932 130.602 29.9627 130.708 31.1527H130.804C130.921 30.0583 131.149 29.0277 131.489 28.0608L134.788 18.036H140L132.462 38.1333C131.771 39.9927 130.783 41.3846 129.497 42.309C128.222 43.2334 126.729 43.6956 125.019 43.6956C124.179 43.6956 123.356 43.6053 122.548 43.4246V39.5677C123.133 39.7059 123.77 39.7749 124.461 39.7749C125.322 39.7749 126.071 39.5093 126.708 38.978C127.356 38.4574 127.861 37.6658 128.222 36.6033L128.509 35.7268L121.433 18.036Z" fill="#2F2E41"/>
<path d="M19.5679 0.00081589C17.4541 0.00135687 15.4271 0.739897 13.9324 2.05408C12.4378 3.36827 11.5978 5.15054 11.5972 7.00907V10.1928H7.97627C6.92878 10.192 5.89139 10.3729 4.92347 10.725C3.95556 11.0771 3.07611 11.5936 2.33545 12.2449C1.59478 12.8961 1.00743 13.6694 0.60701 14.5205C0.206589 15.3716 0.000954259 16.2837 0.00187003 17.2047V24.2105H11.5953V30.578H7.9744C5.86003 30.5777 3.83213 31.3159 2.33669 32.6302C0.841255 33.9444 0.00073859 35.727 0 37.5861V49.694H7.97813C9.02463 49.6936 10.0607 49.512 11.0274 49.1592C11.994 48.8068 12.8721 48.2902 13.6117 47.6392C14.3513 46.9883 14.9377 46.2155 15.3376 45.3651C15.7375 44.5146 15.943 43.6036 15.9423 42.6835H15.9525V38.0579L15.9312 38.0603V8.59073L15.9488 8.5944V7.01029C15.9507 6.16562 16.3324 5.35588 17.0108 4.7578C17.6892 4.15972 18.6091 3.82189 19.5698 3.818H33.417V7.01029C33.4141 7.85458 33.031 8.66349 32.3516 9.2601C31.6722 9.85671 30.7517 10.1925 29.7915 10.194H17.5875V14.0153H29.7896C31.9034 14.0154 33.9306 13.2772 35.4254 11.9632C36.9202 10.6491 37.76 8.86679 37.7603 7.00827V0L19.5679 0.00081589ZM11.5972 20.3888H4.35255V17.2051C4.35414 16.3594 4.73636 15.5487 5.41574 14.9501C6.09508 14.3515 7.01634 14.0136 7.97813 14.0104H11.5991L11.5972 20.3888ZM11.5972 42.687C11.5956 43.5312 11.2137 44.3407 10.5351 44.9378C9.8565 45.5352 8.93644 45.8718 7.97627 45.8739H4.35068V37.5882C4.35156 36.7434 4.73397 35.9335 5.41383 35.3364C6.09373 34.7394 7.01538 34.4042 7.97627 34.4045H11.5972V42.687ZM17.5875 24.2101H26.7327V27.3971C26.7292 28.2412 26.3459 29.0498 25.6666 29.6463C24.9873 30.2428 24.0672 30.5788 23.1071 30.5808H17.5875V34.4045H23.109C24.1559 34.405 25.1926 34.2241 26.1599 33.872C27.1271 33.52 28.0061 33.0038 28.7463 32.3529C29.4866 31.7021 30.0737 30.9293 30.4741 30.0788C30.8744 29.2283 31.0802 28.3167 31.0797 27.3963H31.0834V20.388H17.5875V24.2101Z" fill="#6C63FF"/>
</svg>
